<svg xmlns="http://www.w3.org/2000/svg" xmlns:xlink="http://www.w3.org/1999/xlink" width="400" height="400" viewBox="0 0 400 400"><g data-name="icon" fill="#ef4444" data="id:7202751" transform="translate(7.534362979340649, 7.548279646408403) scale(3.8492965147027043)">
    
 <path d="m41.309 34.336c-0.71875 0.39844-1.6328 0.14062-2.0352-0.57813-0.39844-0.71875-0.14063-1.6328 0.57812-2.0352 1.5195-0.84375 3.1641-1.5078 4.8984-1.957 1.6875-0.4375 3.4492-0.67188 5.2422-0.67188 5.7734 0 11 2.3398 14.781 6.125 3.7812 3.7812 6.125 9.0117 6.125 14.781 0 5.7656-2.3438 10.996-6.125 14.777-3.7773 3.7852-9.0078 6.125-14.777 6.125-5.7695 0-11-2.3398-14.781-6.125-3.7812-3.7812-6.125-9.0117-6.125-14.781 0-1.9883 0.28125-3.918 0.80469-5.75 0.53906-1.8867 1.3398-3.6719 2.3594-5.3008 0.43359-0.70312 1.3594-0.91797 2.0625-0.48047 0.70312 0.43359 0.91797 1.3594 0.48047 2.0625-0.87109 1.3945-1.5586 2.9219-2.0156 4.543-0.44531 1.5586-0.6875 3.2148-0.6875 4.9297 0 4.9453 2.0078 9.4219 5.2422 12.66 3.2383 3.2383 7.7148 5.2422 12.66 5.2422 4.9453 0 9.4219-2.0078 12.66-5.2422s5.2422-7.7109 5.2422-12.66c0-4.9453-2.0078-9.4219-5.2422-12.66-3.2383-3.2383-7.7148-5.2422-12.66-5.2422-1.5664 0-3.0742 0.19531-4.4961 0.5625-1.4805 0.37891-2.8867 0.94922-4.1953 1.6758zm-31.586-10.027c0-0.82812 0.67188-1.5 1.5-1.5s1.5 0.67188 1.5 1.5v13.598c0 0.82812-0.67188 1.5-1.5 1.5s-1.5-0.67188-1.5-1.5zm6.4883 0c0-0.82812 0.67187-1.5 1.5-1.5 0.82812 0 1.5 0.67188 1.5 1.5v14.418c0 2.1914-0.89844 4.1914-2.3438 5.6406-0.23047 0.22656-0.47266 0.44531-0.73047 0.64453v25.621c0 1.3516-0.55078 2.582-1.4414 3.4727-0.88672 0.88672-2.1211 1.4414-3.4727 1.4414-1.3516 0-2.582-0.55078-3.4727-1.4414l-0.089844-0.097657c-0.83594-0.88281-1.3516-2.0742-1.3516-3.375v-25.625c-0.25391-0.19922-0.49609-0.41016-0.71875-0.64062l-0.007813-0.007813c-1.4414-1.4453-2.3438-3.4453-2.3438-5.6328v-14.418c0-0.82812 0.67188-1.5 1.5-1.5s1.5 0.67188 1.5 1.5v14.418c0 1.375 0.5625 2.6211 1.4609 3.5234 0.92578 0.93359 2.2031 1.4688 3.5273 1.4688 1.3242 0 2.5938-0.53516 3.5234-1.4648 0.90234-0.90234 1.4648-2.1523 1.4648-3.5234v-14.418zm-3.0703 22.172c-0.61328 0.15234-1.2578 0.23438-1.9141 0.23438-0.66016 0-1.3008-0.082032-1.918-0.23438v24.148c0 0.5 0.19141 0.95703 0.50391 1.293l0.058594 0.058594c0.34766 0.34766 0.82812 0.5625 1.3516 0.5625 0.52344 0 1.0039-0.21484 1.3516-0.5625 0.34766-0.34766 0.5625-0.82812 0.5625-1.3516v-24.148zm83.621-8.25c0 0.82812-0.67188 1.5-1.5 1.5s-1.5-0.67188-1.5-1.5v-2.7227c0-2.668-1.0938-5.0938-2.8516-6.8516-1.4258-1.4258-3.2852-2.4102-5.3594-2.7344v25.715h8.2109v-3.6758c0-0.82813 0.67188-1.5 1.5-1.5s1.5 0.67187 1.5 1.5v5.1758c0 0.82812-0.67188 1.5-1.5 1.5h-2.8711v15.988c0 1.3516-0.55469 2.5781-1.4453 3.4727-0.88672 0.89453-2.1172 1.4453-3.4727 1.4453-1.3438 0-2.5742-0.55078-3.4688-1.4414-0.89844-0.89844-1.4492-2.1289-1.4492-3.4727v-17.488l0.007812-0.12891-0.007812-28.703c0-0.82812 0.67187-1.5 1.5-1.5 3.4961 0 6.6719 1.4297 8.9727 3.7305 2.3008 2.3008 3.7305 5.4766 3.7305 8.9727v2.7227zm0 5.0547c0 0.82812-0.67188 1.5-1.5 1.5s-1.5-0.67188-1.5-1.5v-0.375c0-0.82812 0.67188-1.5 1.5-1.5s1.5 0.67188 1.5 1.5zm-7.3711 11.355h-3.8359v15.988c0 0.52734 0.21484 1.0078 0.55859 1.3516 0.35156 0.35156 0.82812 0.5625 1.3555 0.5625 0.52344 0 1.0039-0.21484 1.3516-0.5625 0.35156-0.34375 0.5625-0.82031 0.5625-1.3516v-15.988zm-39.395-31.832c7.5078 0 14.309 3.0469 19.227 7.9609 4.9219 4.9219 7.9648 11.723 7.9648 19.227 0 7.5078-3.0469 14.309-7.9648 19.227-4.9219 4.9219-11.723 7.9609-19.227 7.9609-7.5078 0-14.309-3.0469-19.223-7.9648-4.9219-4.9219-7.9648-11.719-7.9648-19.223 0-7.5078 3.0469-14.309 7.9648-19.227 4.9219-4.9219 11.719-7.9609 19.223-7.9609zm17.105 10.082c-4.3789-4.3789-10.426-7.082-17.105-7.082-6.6797 0-12.73 2.7109-17.102 7.082-4.3789 4.3789-7.0859 10.426-7.0859 17.105 0 6.6797 2.7109 12.73 7.0859 17.102 4.3789 4.3789 10.426 7.0859 17.102 7.0859 6.6797 0 12.73-2.7109 17.105-7.082 4.3789-4.3789 7.0859-10.426 7.0859-17.105 0-6.6797-2.7109-12.73-7.0859-17.105zm-29.59 4.2656c-0.59766 0.57031-1.5469 0.54688-2.1133-0.050781-0.57031-0.59766-0.54688-1.5469 0.050781-2.1133l0.27344-0.26172c0.59766-0.57031 1.5469-0.54688 2.1133 0.050781 0.57031 0.59766 0.54687 1.5469-0.050782 2.1133z"/>

    </g></svg>